<?xml version="1.0" encoding="UTF-8" standalone="no"?>
<!-- Created with Inkscape (http://www.inkscape.org/) -->

<svg
   width="132.61534mm"
   height="135.46666mm"
   viewBox="0 0 132.61534 135.46666"
   version="1.1"
   id="svg1"
   xml:space="preserve"
   inkscape:version="1.4.2 (ebf0e940d0, 2025-05-08)"
   sodipodi:docname="icon.svg"
   inkscape:export-filename="icon.png"
   inkscape:export-xdpi="96"
   inkscape:export-ydpi="96"
   xmlns:inkscape="http://www.inkscape.org/namespaces/inkscape"
   xmlns:sodipodi="http://sodipodi.sourceforge.net/DTD/sodipodi-0.dtd"
   xmlns="http://www.w3.org/2000/svg"
   xmlns:svg="http://www.w3.org/2000/svg"><sodipodi:namedview
     id="namedview1"
     pagecolor="#ffffff"
     bordercolor="#000000"
     borderopacity="0.25"
     inkscape:showpageshadow="2"
     inkscape:pageopacity="0.0"
     inkscape:pagecheckerboard="0"
     inkscape:deskcolor="#d1d1d1"
     inkscape:document-units="mm"
     inkscape:zoom="2.0792508"
     inkscape:cx="254.8995"
     inkscape:cy="265.72071"
     inkscape:window-width="2560"
     inkscape:window-height="1412"
     inkscape:window-x="0"
     inkscape:window-y="0"
     inkscape:window-maximized="1"
     inkscape:current-layer="layer1"
     showgrid="false" /><defs
     id="defs1"><clipPath
       clipPathUnits="userSpaceOnUse"
       id="clipPath11"><rect
         style="fill:#000000;fill-opacity:1;stroke:none;stroke-width:0.175858;stroke-linecap:square"
         id="rect12"
         width="62.193325"
         height="63.530525"
         x="245.49178"
         y="291.12814"
         rx="14.295463"
         ry="14.295463" /></clipPath></defs><g
     inkscape:label="Layer 1"
     inkscape:groupmode="layer"
     id="layer1"
     transform="translate(-200.77821,-260.63675)"><g
       id="g4"
       transform="matrix(0.84823747,0,0,0.84823747,30.470609,39.554895)"><rect
         style="fill:#000000;fill-opacity:1;stroke:none;stroke-width:0.442074;stroke-linecap:square"
         id="rect1"
         width="156.34224"
         height="159.7037"
         x="200.77821"
         y="260.63675"
         rx="35.936085"
         ry="35.936085" /></g><path
       d="m 311.86306,315.60145 -1.28225,0.50881 c -2.27824,0.90403 -9.72601,2.92126 -13.88779,3.76152 -0.31439,0.0634 -0.56712,0.16848 -0.56161,0.23335 0.005,0.0649 0.41023,0.42299 0.89939,0.79585 l 0.88935,0.67792 1.69492,-0.47408 c 2.31909,-0.64868 7.07562,-2.15572 8.46647,-2.68251 1.04952,-0.3975 3.1229,-1.19492 3.64961,-1.40362 0.13066,-0.0518 0.21985,0.0525 0.21985,0.25707 0,0.36186 -0.63573,0.67297 -3.60562,1.76447 -1.40002,0.51453 -5.80028,1.91013 -8.76663,2.78045 l -1.55537,0.45633 0.10179,1.96306 c 0.056,1.07969 0.15107,3.21483 0.21131,4.74475 0.0977,2.47997 0.14085,2.76989 0.39827,2.67289 0.84809,-0.31958 5.67121,-2.98429 6.14205,-3.39341 0.30268,-0.26302 1.041,-1.34883 1.64069,-2.41293 1.26487,-2.24437 2.0197,-3.24194 2.72888,-3.60644 0.27834,-0.14305 0.95471,-0.51799 1.50304,-0.83319 1.16777,-0.67127 1.20159,-0.67786 1.20159,-0.23404 0,0.22512 -0.34752,0.55013 -1.03434,0.96736 -0.56889,0.34558 -1.10686,0.62832 -1.1955,0.62832 -0.3155,0 -1.41451,1.33951 -2.16457,2.63828 -0.419,0.72552 -1.04741,1.78974 -1.39646,2.36493 l -0.63463,1.04581 -3.69072,1.97087 -3.69071,1.97086 -0.4571,1.38044 c -0.2514,0.75925 -0.43903,1.40388 -0.41695,1.43252 0.0221,0.0287 0.86095,-0.51259 1.86417,-1.20274 1.00322,-0.69014 2.81338,-1.92511 4.02258,-2.74438 1.20921,-0.81927 2.7526,-1.88607 3.42975,-2.37064 0.67716,-0.48459 1.62694,-1.14003 2.11062,-1.45656 0.48368,-0.31653 1.41786,-0.98401 2.07596,-1.4833 0.65809,-0.4993 1.21213,-0.90763 1.23119,-0.90741 m -33.1051,22.34726 c 2.7239,-0.3887 8.00565,-1.70923 9.25451,-2.3138 1.81759,-0.87988 2.84179,-2.77696 3.83659,-7.10635 0.54572,-2.375 1.07767,-3.58834 1.79577,-4.09605 0.26869,-0.18998 1.23239,-0.71807 2.14155,-1.17354 l 1.653,-0.82815 -0.0958,-4.74508 c -0.0527,-2.60979 -0.14537,-4.79467 -0.20598,-4.85529 -0.0607,-0.0607 -0.80779,0.0235 -1.66037,0.18693 -0.85258,0.16344 -1.78076,0.29074 -2.06262,0.28288 l -0.51248,-0.0143 0.52765,-0.24187 c 0.29021,-0.13303 1.14105,-0.37753 1.89076,-0.54332 0.74971,-0.1658 1.36002,-0.38691 1.35625,-0.49136 -0.004,-0.10444 -0.3745,-0.46061 -0.82383,-0.79148 l -0.81696,-0.60158 -4.23286,-0.0283 c -2.32807,-0.0155 -6.05326,-0.15868 -8.2782,-0.31803 -4.64377,-0.33259 -13.34953,-0.38978 -17.59145,-0.11557 -1.54613,0.1 -4.51283,0.38351 -6.59267,0.63013 -2.32662,0.27588 -4.69505,0.44705 -6.15596,0.44491 -3.30123,-0.004 -4.80561,-0.33625 -10.90483,-2.40216 -3.79202,-1.28444 -8.00499,-2.52485 -11.60838,-3.41784 -1.59616,-0.39555 -3.12572,-0.77722 -3.39903,-0.84815 -0.74637,-0.19371 -0.57898,-0.47378 0.31939,-0.53439 0.74292,-0.0501 0.7824,-0.0775 0.60093,-0.41657 -0.15818,-0.29555 -0.31346,-0.34618 -0.83647,-0.27271 -0.7836,0.11008 -2.37685,0.70539 -3.13903,1.17287 -1.18908,0.72933 -1.19748,0.77339 -1.1903,6.24589 0.007,5.36656 0.13415,6.50651 1.30498,11.7041 1.04506,4.63923 2.10351,6.55017 4.80901,8.68224 3.51137,2.76712 9.51412,4.25052 13.05095,3.22514 0.86267,-0.2501 1.99025,-1.34207 2.48818,-2.40961 0.54642,-1.1715 1.51709,-4.25929 2.43278,-7.73892 1.00612,-3.8232 1.20599,-4.30153 1.94363,-4.65158 1.74069,-0.826 3.88751,0.2993 4.57409,2.3976 1.31743,4.0263 3.87089,9.60197 5.36502,11.71494 1.64328,2.32388 3.69947,3.44248 7.51399,4.08773 4.60489,0.77894 8.66718,0.83433 13.24814,0.18062 z m -10.0304,-1.43045 c -2.07023,-0.23423 -5.37984,-0.99132 -6.42929,-1.47073 -1.80701,-0.82547 -3.35926,-2.64357 -4.70033,-5.50532 -2.4132,-5.14965 -3.62628,-11.555 -2.59269,-13.69011 0.62627,-1.29369 1.79951,-1.90321 4.8571,-2.52335 3.30429,-0.67017 4.92077,-0.7842 11.23015,-0.7922 6.35342,-0.008 9.29989,0.16945 12.73132,0.767 3.58589,0.62444 4.20374,0.9382 5.0298,2.55426 l 0.53087,1.03855 -0.002,5.28845 c -0.002,5.6108 -0.14239,6.91801 -0.98327,9.16545 -0.91923,2.45689 -3.90187,3.8501 -10.53513,4.92104 -2.07239,0.33458 -7.14925,0.47182 -9.1365,0.24696 z m -1.43154,-2.29643 c 0.5483,-0.68864 0.7185,-1.05635 0.7185,-1.55229 0,-0.79669 0.51563,-1.33537 1.44184,-1.50631 0.35769,-0.066 0.793,-0.22821 0.96737,-0.36043 0.37008,-0.28064 0.21378,-0.3009 -0.69434,-0.09 -0.36276,0.0842 -0.65776,0.10214 -0.65557,0.0398 0.002,-0.0623 0.2782,-0.62228 0.61334,-1.24424 0.33514,-0.62197 0.58033,-1.15987 0.54487,-1.19532 -0.077,-0.0771 -1.64757,2.09925 -1.79822,2.49184 -0.17301,0.45089 -0.37289,0.31267 -0.49588,-0.34289 -0.11206,-0.59733 -0.85497,-1.32429 -1.10147,-1.07779 -0.0615,0.0615 -0.0149,0.11176 0.10332,0.11176 0.11831,0 0.37708,0.36619 0.57506,0.81376 0.28926,0.6539 0.32186,0.89737 0.166,1.23946 -0.10669,0.23415 -0.19398,0.72667 -0.19398,1.09451 0,0.45189 -0.17008,0.9198 -0.52445,1.44277 -0.4916,0.72549 -0.62939,1.0378 -0.45787,1.0378 0.0401,0 0.39631,-0.40607 0.79148,-0.90239 z m 10.14784,-0.11439 c -0.23437,-0.4625 -0.45336,-0.96627 -0.48665,-1.11948 -0.0613,-0.28225 2.69922,-2.61262 3.09491,-2.61262 0.10783,0 0.35446,0.11098 0.5481,0.24659 0.19362,0.13563 0.70573,0.34183 1.13801,0.45823 0.57054,0.15362 1.07193,0.49582 1.82921,1.24843 0.57379,0.57024 1.07329,1.0368 1.11001,1.0368 0.1315,0 -1.51531,-2.20132 -1.74352,-2.33059 -0.12818,-0.0726 -0.45071,-0.20915 -0.71674,-0.30344 -0.44859,-0.15899 -0.48368,-0.2419 -0.48368,-1.14314 0,-0.53445 -0.0791,-0.97172 -0.17589,-0.97172 -0.0967,0 -0.17708,0.25723 -0.17857,0.57163 -0.004,0.85803 -0.21079,1.09772 -0.71433,0.82823 -0.44264,-0.2369 -2.09713,-0.70786 -2.09713,-0.59697 0,0.0371 0.24003,0.19163 0.53341,0.34334 0.29337,0.1517 0.48634,0.35196 0.42884,0.445 -0.0575,0.0931 -0.68872,0.55434 -1.40273,1.02509 -1.32927,0.87643 -1.49425,0.87878 -1.49425,0.0213 0,-0.17802 -0.31262,-0.59128 -0.69472,-0.91834 -0.38209,-0.32706 -0.79048,-0.8279 -0.90751,-1.11298 l -0.2128,-0.51833 -0.12302,0.52765 c -0.10939,0.46918 -0.0355,0.60739 0.66681,1.24712 0.71122,0.64785 0.79837,0.81417 0.87557,1.6709 0.068,0.7553 0.22763,1.14181 0.77405,1.87484 0.37858,0.50786 0.72667,0.92339 0.77353,0.92339 0.0469,0 -0.10654,-0.37841 -0.34091,-0.8409 z m -4.13528,-3.35375 c 0.45402,-1.35559 0.51628,-1.71996 0.35455,-2.07493 -0.10791,-0.23681 -0.19619,-0.66248 -0.19619,-0.94591 0,-1.09746 1.53678,-1.3063 1.93353,-0.26276 0.0926,0.24358 0.21727,0.44288 0.27702,0.44288 0.0598,0 0.90247,0.16176 1.87272,0.35949 0.97025,0.19773 1.7935,0.3301 1.82944,0.29415 0.036,-0.036 -0.47357,-0.73196 -1.13224,-1.54672 -1.06432,-1.31652 -1.26942,-1.48742 -1.84313,-1.5358 -0.67583,-0.057 -1.1785,-0.53809 -1.1785,-1.12795 0,-0.49658 0.64545,-1.0153 1.27517,-1.0248 0.50962,-0.008 0.70148,-0.17939 1.76888,-1.58296 0.65848,-0.86588 1.09379,-1.57478 0.96735,-1.57533 -0.12643,-5.5e-4 -1.00914,0.17252 -1.96159,0.3846 -1.46905,0.32711 -1.75529,0.44764 -1.88722,0.79463 -0.0855,0.22498 -0.35498,0.49993 -0.59877,0.61101 -0.96251,0.43854 -1.77569,-0.57009 -1.27217,-1.57795 0.21379,-0.4279 0.17653,-0.65428 -0.37494,-2.27794 -0.33678,-0.99155 -0.66567,-1.80282 -0.73086,-1.80282 -0.0652,0 -0.39932,0.81503 -0.74251,1.81118 -0.54732,1.58864 -0.59407,1.85209 -0.38045,2.14422 0.32853,0.44931 0.30718,1.13517 -0.0475,1.52714 -0.5145,0.56853 -1.35395,0.34893 -1.78344,-0.46654 -0.13662,-0.2594 -0.66082,-0.46405 -2.05073,-0.80063 -1.27915,-0.30975 -1.85139,-0.38555 -1.81702,-0.24067 0.0276,0.11632 0.58008,0.88584 1.22777,1.71007 0.94717,1.20532 1.24828,1.48011 1.53868,1.40417 0.56476,-0.14768 1.2411,0.39359 1.2411,0.99325 0,0.67183 -0.41663,1.06381 -1.13071,1.06381 -0.51877,0 -0.6977,0.15593 -1.74768,1.52293 -0.64336,0.83762 -1.14735,1.54534 -1.11998,1.57271 0.0274,0.0274 0.89863,-0.11765 1.93613,-0.32227 1.19711,-0.23611 1.88636,-0.45262 1.88636,-0.59258 0,-0.12129 0.2103,-0.38596 0.46735,-0.58814 0.50733,-0.39907 1.04639,-0.34998 1.42341,0.12963 0.26264,0.33412 0.29261,1.37791 0.0439,1.53158 -0.28194,0.17425 -0.21437,0.51269 0.47395,2.37397 0.4073,1.10139 0.70167,1.67555 0.7887,1.53842 0.0763,-0.12034 0.38669,-0.95877 0.6896,-1.86314 z m -1.61032,-5.45158 c -0.50629,-0.40998 -0.5477,-1.37669 -0.0738,-1.72321 0.4666,-0.3412 1.38339,-0.29728 1.72729,0.0827 0.42684,0.47166 0.37447,1.35884 -0.0998,1.69106 -0.51905,0.36355 -1.06416,0.34581 -1.55366,-0.0506 z m -10.7356,5.78518 c 0.37017,-0.18885 0.91398,-0.54609 1.20846,-0.79388 0.29448,-0.2478 0.80602,-0.56359 1.13677,-0.70178 0.62364,-0.26059 1.13398,-0.73695 0.96767,-0.90326 -0.16908,-0.16907 -1.78452,0.75683 -2.32905,1.33492 -0.29022,0.30809 -0.82446,0.71282 -1.18722,0.89939 -0.36277,0.18658 -0.65957,0.37721 -0.65957,0.4236 0,0.14564 0.16956,0.0948 0.86294,-0.25899 z m 26.57504,-3.272 c 0,-0.0537 -0.42746,-0.29336 -0.94989,-0.53255 -0.52244,-0.23917 -1.02582,-0.5316 -1.11863,-0.64983 -0.17518,-0.22318 -0.95161,-2.44735 -0.87633,-2.51039 0.17636,-0.14763 1.78498,-0.8932 2.50308,-1.16014 l 0.88148,-0.32767 -0.87942,0.10566 c -0.48368,0.0581 -1.347,0.3022 -1.91849,0.54242 -0.91329,0.38387 -1.13028,0.41378 -1.79276,0.24696 -0.41453,-0.10438 -0.93748,-0.18978 -1.1621,-0.18978 -0.22461,0 -0.68967,-0.15077 -1.03346,-0.33502 -0.52,-0.2787 -0.77089,-0.30826 -1.49242,-0.17581 -1.04937,0.19262 -1.8347,0.49714 -1.8347,0.7114 0,0.0878 0.21476,0.0978 0.48368,0.0227 1.0792,-0.30181 4.43659,0.089 5.45727,0.63529 0.3308,0.17703 0.72917,0.94662 1.13655,2.19565 0.19155,0.58728 0.35324,0.73468 1.18906,1.08395 0.98424,0.4113 1.40708,0.51264 1.40708,0.33723 z m -27.65841,-2.06585 c 0.41273,-0.3922 0.51025,-0.58124 0.35176,-0.68189 -0.35243,-0.22379 -0.48311,-0.16825 -0.48311,0.20535 0,0.2291 -0.3341,0.57181 -0.96735,0.99226 -0.53206,0.35326 -0.96737,0.67227 -0.96737,0.70892 0,0.17917 1.56488,-0.74839 2.06607,-1.22464 z m 4.86843,-0.20598 c -0.38325,-0.58492 -0.29609,-0.65322 0.53932,-0.42255 0.51019,0.14087 0.85179,0.13255 1.35321,-0.0329 0.87383,-0.2884 0.86367,-0.55184 -0.0158,-0.41119 -0.44264,0.0707 -1.00093,0.005 -1.57132,-0.18408 -0.81062,-0.26925 -0.96207,-0.2709 -1.80773,-0.0198 -0.50764,0.15075 -0.98776,0.2741 -1.06694,0.2741 -0.28272,0 -0.13763,-1.01592 0.2078,-1.45508 0.24717,-0.31422 0.35177,-0.71352 0.35177,-1.34284 0,-0.49261 0.0285,-0.89566 0.0632,-0.89566 0.0348,0 0.67314,0.28182 1.41864,0.62626 0.7455,0.34446 1.48877,0.59895 1.6517,0.56556 0.17883,-0.0367 -0.12201,-0.2586 -0.75907,-0.55999 -0.58042,-0.2746 -1.07849,-0.5193 -1.10682,-0.54378 -0.11547,-0.0998 0.59345,-1.44015 1.00009,-1.89087 0.24001,-0.26602 0.37679,-0.48368 0.30396,-0.48368 -0.37012,0 -0.84942,0.43751 -1.17196,1.06976 -0.40784,0.79943 -0.75408,1.00596 -1.14396,0.68238 -0.14709,-0.12207 -0.87281,-0.32721 -1.6127,-0.45589 -1.05012,-0.18261 -1.46368,-0.3454 -1.88492,-0.74201 -0.53443,-0.50318 -2.91409,-1.90613 -2.91409,-1.71803 0,0.0537 0.43761,0.37761 0.97246,0.71975 0.53486,0.34214 1.30772,0.93111 1.71748,1.30881 0.49848,0.45948 0.97696,0.7244 1.44595,0.80054 1.59048,0.25823 1.49241,0.1723 1.49241,1.30798 0,0.57322 -0.11678,1.25576 -0.26274,1.53564 -0.14451,0.27708 -0.26323,0.72399 -0.26383,0.99313 -6.6e-4,0.33863 -0.12297,0.54233 -0.39682,0.66135 -0.27672,0.12027 0.0596,0.14089 1.11842,0.0685 l 1.51416,-0.10345 0.50851,0.80745 c 0.29651,0.47081 0.53139,0.70086 0.56338,0.5518 0.0302,-0.1406 -0.0795,-0.46067 -0.24369,-0.71127 z m 17.16063,-4.60569 -0.5879,-0.81865 0.33844,-0.62214 c 0.30663,-0.56365 0.47459,-0.65897 1.78666,-1.01385 0.79652,-0.21545 1.66715,-0.55002 1.93474,-0.74352 0.55826,-0.40369 2.28456,-2.13856 2.12799,-2.13856 -0.0573,0 -0.56876,0.36278 -1.13664,0.80619 -1.35882,1.06099 -1.62245,1.18403 -3.53528,1.65006 l -1.62337,0.3955 -1.0149,-0.56984 c -0.73633,-0.41343 -0.92899,-0.47356 -0.7019,-0.21905 0.17216,0.19294 0.62727,0.4925 1.01135,0.6657 0.38407,0.1732 0.69832,0.38722 0.69832,0.47564 0,0.27263 -0.37139,0.89582 -0.99062,1.66222 -0.75531,0.93484 -0.75162,1.101 0.0115,0.51893 0.33212,-0.25332 0.68164,-0.46058 0.7767,-0.46058 0.0951,0 0.42648,0.32023 0.73647,0.71165 0.76509,0.96599 0.90218,0.72204 0.16842,-0.2997 z m -5.50369,-1.53863 c 0.9879,-0.65832 1.33079,-1.22469 1.47618,-2.43838 0.0961,-0.80233 0.26732,-1.2073 0.81793,-1.93473 1.06511,-1.40718 1.0538,-1.55975 -0.0291,-0.39235 -0.63488,0.68443 -1.04192,1.30256 -1.15821,1.75885 -0.49322,1.93541 -0.53089,2.00856 -1.31069,2.54508 -0.79748,0.54868 -1.50264,1.32057 -1.50264,1.64483 0,0.10179 0.21765,-0.012 0.48367,-0.25283 0.26603,-0.24084 0.81631,-0.65956 1.22286,-0.93047 z m -6.79422,-0.16357 c -0.27498,-0.61288 -0.5551,-1.38457 -0.62248,-1.71486 -0.0673,-0.3303 -0.3848,-0.99626 -0.70536,-1.47995 -0.32056,-0.48369 -0.74597,-1.19601 -0.94535,-1.58296 -0.41912,-0.81343 -0.50534,-0.43559 -0.11421,0.50052 0.1451,0.34729 0.26382,0.67354 0.26382,0.72502 0,0.0515 -0.77541,0.0936 -1.72315,0.0936 h -1.72314 l -0.69527,-0.71747 c -1.15939,-1.19641 -1.46639,-1.17381 -0.41053,0.0303 0.63627,0.72555 1.13745,1.13958 1.40708,1.1624 0.23035,0.0195 1.11345,0.0861 1.96248,0.14809 l 1.54366,0.11265 0.36918,0.73134 c 0.53149,1.05285 1.73479,3.10577 1.82042,3.10577 0.0401,0 -0.15216,-0.50146 -0.42715,-1.11436 z m -34.57427,13.35595 c -3.43888,-0.65588 -7.11285,-2.95767 -8.76358,-5.49048 -0.68442,-1.05015 -1.64844,-4.18434 -2.17079,-7.05761 -0.42281,-2.3257 -0.47324,-3.03452 -0.485,-6.81682 -0.0143,-4.61002 0.0568,-5.00716 0.98996,-5.53025 0.85484,-0.47917 4.8519,0.26158 10.69324,1.98173 7.75359,2.28327 9.84354,3.86509 9.84781,7.4535 0.003,3.01327 -1.3081,9.85756 -2.45387,12.80405 -0.37622,0.96753 -1.21207,2.1074 -1.79994,2.45468 -0.74412,0.43957 -4.01836,0.55203 -5.85783,0.2012 z m 57.105,0.72873 c 0.40788,-0.38468 1.07688,-1.46929 1.81567,-2.94362 0.64341,-1.28398 1.36114,-2.62361 1.59497,-2.97694 0.41778,-0.63131 1.5481,-3.70213 1.41258,-3.83766 -0.10462,-0.10462 -2.22164,0.9865 -2.89365,1.49142 -0.72128,0.54191 -0.9657,1.10474 -1.53147,3.52638 -0.55215,2.36336 -0.8759,3.36797 -1.50974,4.68481 -0.27598,0.57338 -0.5018,1.07009 -0.5018,1.1038 0,0.1671 1.04401,-0.51114 1.61344,-1.04819 z m -47.58495,-0.43042 c 1.14724,-0.8606 3.19942,-4.68241 4.04185,-7.52719 0.58254,-1.96716 0.78644,-4.81226 0.36967,-5.15814 -0.21772,-0.1807 -0.34943,-0.14739 -0.73772,0.18659 -0.40371,0.34726 -0.6353,1.00888 -1.58773,4.53584 -1.22306,4.52919 -1.98565,6.77075 -2.64511,7.77512 -0.66145,1.00736 -0.57308,1.03704 0.55904,0.18778 z m -0.3386,-25.2683 c 4.94826,-2.13699 13.07498,-4.25662 14.89834,-3.88582 0.29923,0.0608 1.24842,0.51208 2.10931,1.00273 1.21389,0.69185 1.72888,0.88963 2.29411,0.88109 1.09107,-0.0165 6.10454,-1.70893 6.58857,-2.22416 0.49373,-0.52555 1.3177,-3.09731 1.07129,-3.34371 -0.2212,-0.22121 -11.35017,0.14662 -15.74046,0.52024 -4.4712,0.3805 -10.8568,1.21711 -14.7743,1.93564 -3.66686,0.67257 -9.59694,1.98831 -9.80546,2.1756 -0.0725,0.0651 0.56069,0.29791 1.40708,0.51733 2.22986,0.57807 7.156,2.0679 8.48632,2.56657 1.51235,0.56688 1.84832,0.55278 3.4652,-0.14551 z m -11.91068,-4.08404 c 5.46337,-1.21183 12.50544,-2.39105 18.20707,-3.04889 4.74437,-0.54738 11.23459,-0.88681 17.03148,-0.8907 2.71131,-0.002 3.47222,-0.0513 3.41586,-0.2222 -0.18025,-0.54647 -0.92537,-0.65438 -4.52979,-0.656 -11.19874,-0.005 -23.69532,1.29082 -35.88044,3.72062 -1.49941,0.29899 -2.78936,0.60025 -2.86654,0.66946 -0.20071,0.17997 0.22371,1.02779 0.56057,1.11979 0.37397,0.10214 0.83602,0.0234 4.06179,-0.69208 z m 68.4221,14.50688 c 0,-0.49535 -0.0414,-0.53635 -0.43971,-0.43637 -0.43723,0.10974 -0.43971,0.1035 -0.43971,-1.10395 0,-1.10119 0.041,-1.24115 0.43971,-1.50243 0.32379,-0.21216 0.43971,-0.44302 0.43971,-0.87575 0,-0.53003 0.0739,-0.61586 0.75339,-0.87537 1.04673,-0.39974 1.18133,-0.37007 1.18133,0.26044 0,0.48986 0.0468,0.53921 0.43972,0.4641 0.41736,-0.0798 0.43983,-0.0428 0.44211,0.727 0.002,0.44609 0.0485,0.98315 0.10497,1.19348 0.0807,0.30076 -0.0137,0.44257 -0.44211,0.66409 -0.45272,0.23411 -0.54469,0.38635 -0.54469,0.90171 0,0.5413 -0.0774,0.65243 -0.60994,0.87491 -0.99613,0.41621 -1.32478,0.34381 -1.32478,-0.29186 z"
       style="fill:#ffffff;fill-opacity:1;stroke-width:0.66476"
       id="path1-5"
       sodipodi:nodetypes="csccscsscssscccsssssssssscccsssssssccsssccsssscsscsccscsccsscssscssssscsssccsscsscssccsssscsssccscsssssssssccscscssssssscsssccssscsscsssssssssssssscssscsssssccssssssssssscscscsscscccccscsssscssscsccsssssscsssssscsssscscccsssssscsssssscssssssscsccscccccsssssscssssssscccsssscssssccssssscscsccssccsssccscssssssssssssssssscsccsssssscscccscccssscssssscssccsscs" /><path
       d="m 238.34638,342.38358 c -0.0617,-0.24948 -0.14269,-1.28078 -0.17998,-2.29179 l -0.0676,-1.83818 0.60828,0.0408 c 0.4641,0.0312 0.79614,0.24185 1.40076,0.88771 1.09382,1.16846 1.28275,1.08138 0.33403,-0.1539 -0.66749,-0.86911 -0.93082,-1.06662 -1.75456,-1.31593 -1.11143,-0.33638 -1.68353,-1.01827 -1.9525,-2.32719 -0.25364,-1.23433 -0.53993,-1.27406 -0.46432,-0.0645 0.0527,0.84552 0.17646,1.1763 0.72335,1.93575 0.61864,0.85909 0.66534,1.01336 0.752,2.48385 0.0507,0.86233 0.19756,1.90949 0.32615,2.32705 0.25285,0.82114 0.45785,1.0571 0.27446,0.31589 z m -7.0269,-3.45695 c 0.0123,-0.30332 -0.12694,-0.92334 -0.30868,-1.37776 -0.30928,-0.77362 -0.31292,-0.86674 -0.057,-1.46304 0.15029,-0.35029 0.27499,-0.7321 0.27709,-0.8485 0.003,-0.1164 0.23236,-0.39402 0.51171,-0.61694 0.66357,-0.52948 0.65001,-0.7512 -0.0324,-0.52643 -0.7624,0.25118 -0.96786,0.46523 -0.97784,1.01876 -0.01,0.53051 -1.1112,2.56706 -1.37882,2.54894 -0.0929,-0.006 -0.17035,0.0776 -0.17233,0.18659 -0.007,0.335 0.2322,0.23875 0.79243,-0.32024 l 0.53693,-0.53577 0.24659,0.79101 c 0.13558,0.43509 0.24504,1.16825 0.24316,1.62926 -0.002,0.65005 0.0303,0.75152 0.14698,0.45196 0.0828,-0.21245 0.16015,-0.63447 0.17205,-0.93783 z m 3.53386,-1.98171 c 0.68853,-1.65902 0.74169,-1.88617 0.5677,-2.42478 -0.24761,-0.76653 -0.0631,-1.38034 0.47704,-1.58602 0.49456,-0.18834 1.11978,0.23339 1.27276,0.85853 0.0663,0.27102 0.53172,0.56124 1.66609,1.03899 0.86572,0.3646 1.61593,0.61696 1.66712,0.56083 0.0512,-0.0562 -0.32943,-0.89741 -0.84582,-1.86947 -0.72512,-1.36493 -1.0268,-1.7735 -1.32487,-1.79425 -0.69558,-0.0497 -1.0243,-0.42536 -1.01105,-1.15944 0.0138,-0.76255 0.35648,-1.06612 1.14349,-1.01286 0.38779,0.0266 0.72011,-0.2598 1.74317,-1.50068 l 1.26402,-1.53313 -0.83054,0.0813 c -0.45677,0.0448 -1.26656,0.10722 -1.79952,0.1386 -0.84783,0.0501 -1.00101,0.12567 -1.225,0.60526 -0.20243,0.43336 -0.37022,0.54034 -0.80174,0.51112 -0.30014,-0.0201 -0.63377,-0.14996 -0.74142,-0.28805 -0.24837,-0.31869 -0.23599,-1.25821 0.0223,-1.71697 0.15599,-0.27668 0.11859,-0.77556 -0.17519,-2.33832 -0.20539,-1.09266 -0.42779,-1.99029 -0.49422,-1.99478 -0.18404,-0.0126 -1.3828,3.02282 -1.37246,3.47517 0.005,0.21836 0.0508,0.72661 0.10262,1.12931 0.0813,0.63658 0.0376,0.77169 -0.33742,1.03427 -0.57061,0.39989 -0.95535,0.2585 -1.34206,-0.49317 -0.25651,-0.49862 -0.62341,-0.76185 -1.89013,-1.35603 -0.86449,-0.40554 -1.60535,-0.7006 -1.64631,-0.65566 -0.041,0.0448 0.3294,0.89124 0.82302,1.88069 0.81048,1.62462 0.95671,1.81475 1.50848,1.96121 0.6823,0.18111 0.89784,0.48531 0.88775,1.25304 -0.009,0.67609 -0.40784,1.02045 -1.10099,0.95017 -0.48846,-0.0494 -0.69494,0.11468 -1.71509,1.36457 l -1.15977,1.42089 1.314,-0.043 c 0.72273,-0.0236 1.5277,-0.0284 1.78888,-0.0113 0.26117,0.0172 0.47673,-0.0722 0.47903,-0.19976 0.008,-0.43316 0.56712,-0.91879 1.02264,-0.88795 0.64334,0.0434 0.88049,0.49508 0.72724,1.3845 -0.0698,0.40564 -0.14015,1.00421 -0.15608,1.3302 -0.0342,0.68962 0.4765,3.69946 0.62894,3.70977 0.0566,0.003 0.44515,-0.81672 0.86298,-1.8235 z m -0.94639,-6.15532 c -0.51677,-0.94017 -0.0591,-1.94216 0.85878,-1.88002 0.61955,0.0416 1.0733,0.62998 1.05989,1.37359 -0.0183,1.01606 -1.43325,1.38954 -1.91867,0.50643 z m -4.95654,-0.99758 c -0.0734,-0.96246 -0.11313,-0.93532 0.70424,-0.4819 0.12849,0.0713 0.19212,0.044 0.14138,-0.0607 -0.0508,-0.10451 -0.65529,-0.57657 -1.34344,-1.04888 -0.85787,-0.58879 -1.24916,-0.97096 -1.24475,-1.21579 0.005,-0.28299 0.42786,-1.5116 0.65075,-1.89123 0.0242,-0.041 0.1961,0.14896 0.38221,0.42232 l 0.33836,0.49699 -0.17982,-0.47187 c -0.0988,-0.25953 -0.54066,-0.98169 -0.98172,-1.60481 -0.72022,-1.01756 -0.80066,-1.2285 -0.78995,-2.0716 0.0108,-0.81289 -0.0759,-1.06413 -0.64404,-1.87509 -0.65627,-0.93684 -0.62968,-0.56878 0.0481,0.66331 0.25114,0.45668 0.29524,0.76991 0.20396,1.44889 -0.11,0.81824 -0.0757,0.92494 0.61792,1.9238 l 0.73441,1.05753 -0.35107,0.62922 c -0.19308,0.3461 -0.35546,0.87364 -0.36085,1.17234 -0.01,0.51769 -0.0392,0.53533 -0.63256,0.37685 -0.60967,-0.16281 -0.6141,-0.1596 -0.21133,0.15209 0.22629,0.17512 0.87211,0.54697 1.43516,0.82637 0.98744,0.48994 1.02719,0.53688 1.12173,1.32461 0.10348,0.86197 0.18,1.11954 0.33576,1.13007 0.0523,0.003 0.0639,-0.40266 0.026,-0.90267 z m 4.12581,-4.35619 c 0.0885,0.006 -0.36691,-0.81135 -0.81951,-1.57388 -0.80522,-1.35661 -0.81878,-1.40352 -0.63244,-2.18424 0.1719,-0.72021 0.13454,-0.98005 -0.3836,-2.67001 -0.31572,-1.02968 -0.60152,-1.84198 -0.63513,-1.80511 -0.0337,0.0367 0.12177,0.89868 0.3452,1.91514 0.34235,1.55721 0.37735,1.97737 0.22232,2.6692 -0.19902,0.88808 -0.13243,2.04399 0.12979,2.25716 0.10049,0.0816 0.1251,-0.0507 0.064,-0.34498 -0.0726,-0.3498 0.13125,-0.15842 0.76186,0.71544 0.92854,1.28678 0.70676,1.00499 0.9474,1.02128 z m 5.38972,-2.76773 c 0.006,-0.30786 0.15798,-0.88081 0.3387,-1.2732 0.18075,-0.39241 0.2606,-0.71807 0.17746,-0.72369 -0.23174,-0.0161 -0.83379,1.17668 -0.84341,1.67048 -0.005,0.24119 -0.239,0.72774 -0.5207,1.08119 -0.2817,0.35345 -0.51511,0.80472 -0.51867,1.00285 -0.005,0.27099 0.16234,0.1672 0.67502,-0.41883 0.46717,-0.53402 0.68469,-0.95513 0.6916,-1.3388 z"
       style="fill:#ffffff;fill-opacity:1;stroke-width:0.722423"
       id="path1" /></g></svg>
